<?xml version="1.0" encoding="utf-8"?>
<!-- Generator: Adobe Illustrator 18.1.1, SVG Export Plug-In . SVG Version: 6.00 Build 0)  -->
<svg version="1.1" xmlns="http://www.w3.org/2000/svg" xmlns:xlink="http://www.w3.org/1999/xlink" x="0px" y="0px"
	 viewBox="0 0 377.8 71.7" enable-background="new 0 0 377.8 71.7" xml:space="preserve">
<g id="Background">
	<g id="Frame">
	</g>
	<g id="Text">
	</g>
</g>
<g id="Find_Us_On_Facebook">
	<g>
		<g>
			<path fill="#3A5A98" d="M373.8,0h-63.8c-2.2,0-4,1.8-4,4v63.8c0,2.2,1.8,4,4,4h63.8c2.2,0,4-1.8,4-4V4C377.8,1.8,376,0,373.8,0z"
				/>
		</g>
		<g>
			<path fill="#3A5A98" d="M0,15h27.9v5.8H6.1v14.7h18v5.7h-18v19H0V15z"/>
			<path fill="#3A5A98" d="M38.1,19.7c-2.7,0-3.9-2-3.9-4.3c0-2.2,1.2-4.3,3.9-4.3c2.7,0,3.9,2,3.9,4.3C42,17.7,40.8,19.7,38.1,19.7
				z M35.2,60.1V26.9l5.9-0.9v34.1H35.2z"/>
			<path fill="#3A5A98" d="M71.2,60.1V39.3c0-5.7-2.2-7.7-6.9-7.7c-3.5,0-6.8,1.8-8.7,3.6v24.8h-5.9V26.9l5.9-0.9v5
				c3-3,6.9-5,10.8-5c6.7,0,10.7,4.3,10.7,11.4v22.7H71.2z"/>
			<path fill="#3A5A98" d="M108.9,11.4l5.9-0.9v49.6h-5.9c0,0,0-2.7,0-3c-2.4,2.2-5.3,4.1-9.2,4.1c-9.3,0-14.7-7.5-14.7-17.5
				c0-10,6.9-17.8,16.8-17.8c2.4,0,5.1,0.4,7.1,1.1V11.4z M101.5,31.3c-6.7,0-10.5,5.5-10.5,12.3c0,7.3,3.7,12.1,9.8,12.1
				c3.1,0,5.8-1.2,8-3.2c0,0.4,0-18.8,0-18.8C106.9,32.1,104.4,31.3,101.5,31.3z"/>
			<path fill="#3A5A98" d="M143.1,27v20.8c0,5.7,2.2,7.7,6.5,7.7c3.8,0,7.1-1.8,9-3.6V27h5.9v33.2l-5.9,0.9c0,0,0-4.5,0-4.8
				c-3,3-6.9,4.8-11.1,4.8c-6.4,0-10.3-4.3-10.3-11.4V27H143.1z"/>
			<path fill="#3A5A98" d="M183.5,61.2c-4,0-8.5-1.2-11.5-3.1l1.5-5.4c2.7,1.9,6.8,3.1,10.2,3.1c3.8,0,6.6-1.7,6.6-4.7
				c0-3.3-3.9-4.4-7.8-5.5c-4.7-1.3-9.8-3.6-9.8-9.7c0-6.1,5.2-10,11.8-10c3.8,0,7.6,0.9,10.7,2.5l-1.5,5.4
				c-2.7-1.5-6.7-2.5-9.5-2.5c-3.5,0-5.8,1.4-5.8,4.1c0,3.2,3.5,4.3,7.7,5.3c4.8,1.3,10,3.6,10,9.9S190.7,61.2,183.5,61.2z"/>
			<path fill="#3A5A98" d="M230.6,61.1c-9.4,0-16-6.9-16-17.6c0-10.6,6.8-17.7,16.3-17.7c9.5,0,15.9,7,15.9,17.7
				C246.8,54.1,239.9,61.1,230.6,61.1z M230.6,31.2c-6.6,0-10.2,5.1-10.2,12.3c0,7.1,3.8,12.3,10.3,12.3c6.6,0,10.2-5.1,10.2-12.2
				C240.9,36.5,237.1,31.2,230.6,31.2z"/>
			<path fill="#3A5A98" d="M274.7,60.1V39.3c0-5.7-2.2-7.7-6.9-7.7c-3.5,0-6.8,1.8-8.7,3.6v24.8h-5.9V26.9l5.9-0.9v5
				c3-3,6.9-5,10.8-5c6.7,0,10.7,4.3,10.7,11.4v22.7H274.7z"/>
		</g>
		<path fill="#FFFFFF" d="M364.9,43.9l1.4-10.8h-10.7v-6.9c0-3.1,0.9-5.3,5.4-5.3l5.7,0v-9.7c-1-0.1-4.4-0.4-8.3-0.4
			c-8.3,0-13.9,5-13.9,14.3v8h-9.3v10.8h9.3v27.8h11.2V43.9H364.9z"/>
	</g>
</g>
</svg>
